<?xml version="1.0" encoding="utf-8"?>
<!-- Generator: Adobe Illustrator 22.0.1, SVG Export Plug-In . SVG Version: 6.00 Build 0)  -->
<svg version="1.1" id="Calque_1" xmlns="http://www.w3.org/2000/svg" xmlns:xlink="http://www.w3.org/1999/xlink" x="0px" y="0px"
	 viewBox="0 0 595.3 595.3" style="enable-background:new 0 0 595.3 595.3;" xml:space="preserve">
<style type="text/css">
	.st0{fill:#F3F2EF;}
</style>
<rect width="595" height="595"/>
<g>
	<path class="st0" d="M242.9,258.4c0-34-27-53.7-57.1-53.7c-23.4,0-46,11.8-56.8,36.8l32.5,19c4.6-10.6,13-18.3,24.8-18.3
		c11.3,0,18.1,7.2,18.1,17.8c0,2.9-0.6,5.7-1.7,8.6h39.3C242.6,265.3,242.9,261.9,242.9,258.4z"/>
	<polygon class="st0" points="130.7,348.7 130.7,376.6 245.3,376.6 245.3,339.5 188.7,339.5 208.4,319.6 158.6,319.6 	"/>
	<rect x="283.3" y="319.6" class="st0" width="38.5" height="57"/>
	<polygon class="st0" points="321.9,208 288.2,208 244.1,223.9 253.5,256.9 283.3,248.7 283.3,268.7 321.9,268.7 	"/>
	<path class="st0" d="M407.4,342.4c-13.5,0-22.4-7.9-26.8-22.8h-39.2c7.4,36.8,30.6,60.4,66.1,60.4c35.5,0,58.6-23.6,66.1-60.4
		h-39.2C429.8,334.6,420.9,342.4,407.4,342.4z"/>
	<path class="st0" d="M407.4,242.2c14.6,0,23.8,9.1,27.8,26.4h38.9c-6.6-38.9-30.1-64-66.7-64c-36.6,0-60.1,25.1-66.7,64h38.9
		C383.6,251.4,392.8,242.2,407.4,242.2z"/>
</g>
<g>
	<path class="st0" d="M197.8,301.9c0,3.5-3,6-7.5,6c-4.2,0-7-2-8-4.7l1.8-1.1c0.8,2.3,3,3.7,6.2,3.7c3,0,5.4-1.3,5.4-4
		c0-5.7-12.8-2.4-12.8-10c0-3.3,2.9-6,7.2-6c3.4,0,6,1.6,7.2,4.2l-1.8,1c-0.9-2.2-3.1-3.2-5.4-3.2c-2.7,0-5.1,1.4-5.1,4
		C185,297.5,197.8,294.2,197.8,301.9z"/>
	<path class="st0" d="M230.8,288.4v13.7c0,3.7,2,3.8,6.3,3.4v1.9c-5.5,0.8-8.4-0.5-8.4-5.3v-13.7H224v-2.1h4.6v-5.3l2.1-0.6v5.9h6.3
		v2.1H230.8z"/>
	<path class="st0" d="M283.6,286.3v21.1h-2.1v-4c-1.6,3.1-4.3,4.5-7.5,4.5c-5,0-8.2-3.3-8.2-8.4v-13.1h2.1v13.1
		c0,3.9,2.2,6.4,6.2,6.4c4.1,0,7.4-2.7,7.4-8.4v-11.1H283.6z"/>
	<path class="st0" d="M334.9,277.9v29.5h-2.1v-4.9c-1.7,3.2-5,5.4-9.1,5.4c-6,0-10.9-4.8-10.9-11s4.9-11,10.9-11
		c4.1,0,7.3,2.1,9.1,5.4v-13.3H334.9z M332.8,296.9c0-5-3.9-9-8.9-9c-5,0-8.9,4-8.9,9s3.9,9,8.9,9
		C328.9,305.8,332.8,301.9,332.8,296.9z"/>
	<path class="st0" d="M365,279.5c0-0.9,0.8-1.6,1.7-1.6c0.9,0,1.7,0.8,1.7,1.6c0,0.9-0.8,1.7-1.7,1.7
		C365.7,281.2,365,280.5,365,279.5z M365.6,286.3h2.1v21.1h-2.1V286.3z"/>
</g>
<rect x="405.6" y="268.5" transform="matrix(-1.836970e-16 1 -1 -1.836970e-16 685.7613 -127.5678)" class="st0" width="2.1" height="21.2"/>
<rect x="405.6" y="282.2" transform="matrix(-1.836970e-16 1 -1 -1.836970e-16 699.4568 -113.8723)" class="st0" width="2.1" height="21.2"/>
<rect x="405.6" y="295.9" transform="matrix(-1.836970e-16 1 -1 -1.836970e-16 713.1523 -100.1768)" class="st0" width="2.1" height="21.2"/>
</svg>
