<svg xmlns="http://www.w3.org/2000/svg" width="89.01" height="52.771" viewBox="0 0 89.01 52.771">
  <path id="Icon_awesome-tripadvisor" data-name="Icon awesome-tripadvisor" d="M26.714,36.169c0,2.045-2.658,3.7-4.7,3.7a3.7,3.7,0,0,1,0-7.407C24.056,32.466,26.714,34.124,26.714,36.169Zm39.945-3.7a3.7,3.7,0,1,0,3.7,3.7A3.7,3.7,0,0,0,66.659,32.467ZM80.472,54.023a22.276,22.276,0,0,1-31.274-3.8l-4.787,7.159-4.741-7.1A22.257,22.257,0,0,1,4.361,23.2,28.86,28.86,0,0,0,0,14.364l13.952-.008A55.4,55.4,0,0,1,44.4,6.007a54.145,54.145,0,0,1,29.7,8.244l14.869.011a28.7,28.7,0,0,0-4.381,8.909A22.276,22.276,0,0,1,80.472,54.023ZM40.08,36.361a17.782,17.782,0,1,0,0,.006v-.006ZM44.5,34.745A22.2,22.2,0,0,1,66,14.189,52.409,52.409,0,0,0,44.4,9.891,55.061,55.061,0,0,0,22.745,14.1,22.288,22.288,0,0,1,44.5,34.745Zm38.9-4.445A17.784,17.784,0,0,0,50.023,42.606v0A17.785,17.785,0,0,0,83.395,30.3ZM33.012,36.168v.018a11.009,11.009,0,1,1,0-.018Zm-3.788,0v-.013a7.223,7.223,0,1,0,0,.013Zm48.434,0v.007a11.006,11.006,0,1,1,0-.007Zm-3.787,0a7.214,7.214,0,1,0-7.212,7.217,7.214,7.214,0,0,0,7.212-7.217h0Z" transform="translate(0 -5.994)" fill="#fff"/>
</svg>
